<?xml version="1.0" encoding="UTF-8" standalone="no"?>
<svg
   xmlns:dc="http://purl.org/dc/elements/1.1/"
   xmlns:cc="http://creativecommons.org/ns#"
   xmlns:rdf="http://www.w3.org/1999/02/22-rdf-syntax-ns#"
   xmlns:svg="http://www.w3.org/2000/svg"
   xmlns="http://www.w3.org/2000/svg"
   xmlns:sodipodi="http://sodipodi.sourceforge.net/DTD/sodipodi-0.dtd"
   xmlns:inkscape="http://www.inkscape.org/namespaces/inkscape"
   version="1.0"
   width="210mm"
   height="297mm"
   viewBox="0 0 595.27559 841.88976"
   preserveAspectRatio="xMidYMid meet"
   id="svg68"
   sodipodi:docname="logo.svg"
   inkscape:version="1.0.1 (3bc2e813f5, 2020-09-07)">
  <defs
     id="defs72" />
  <sodipodi:namedview
     pagecolor="#ffffff"
     bordercolor="#666666"
     borderopacity="1"
     objecttolerance="10"
     gridtolerance="10"
     guidetolerance="10"
     inkscape:pageopacity="0"
     inkscape:pageshadow="2"
     inkscape:window-width="2560"
     inkscape:window-height="1369"
     id="namedview70"
     showgrid="false"
     units="mm"
     inkscape:zoom="1.2210937"
     inkscape:cx="124.06307"
     inkscape:cy="595.61076"
     inkscape:window-x="2552"
     inkscape:window-y="-2"
     inkscape:window-maximized="1"
     inkscape:current-layer="svg68" />
  <metadata
     id="metadata2">
Created by potrace 1.15, written by Peter Selinger 2001-2017
<rdf:RDF>
  <cc:Work
     rdf:about="">
    <dc:format>image/svg+xml</dc:format>
    <dc:type
       rdf:resource="http://purl.org/dc/dcmitype/StillImage" />
    <dc:title></dc:title>
  </cc:Work>
</rdf:RDF>
</metadata>
  <path
     d="m 267.10841,317.20497 c -0.746,0.58608 -2.3285,0.26097 -4.16493,-0.95044 -2.00339,-1.32153 -3.50241,-1.59157 -4.7475,-0.97533 -1.35521,0.7832 -11.46733,14.47828 -14.16194,19.28963 -0.2469,0.55591 1.01048,2.46352 3.04404,4.28414 2.56281,2.28954 3.79355,4.41916 4.50381,7.88261 0.93755,4.57177 0.9109,4.79378 -3.03231,9.50027 -9.87048,12.05752 -21.06395,20.12759 -38.88764,27.89717 -20.14866,8.75164 -30.54108,16.15216 -31.09376,22.25663 -0.10486,1.2486 0.93579,4.21121 2.22335,6.61791 1.28755,2.4067 2.2749,5.81333 2.14515,7.64449 l -0.2062,3.21831 16.19404,10.68237 c 16.86184,11.12288 18.27914,11.69842 20.59182,8.19249 0.60571,-0.91822 2.18117,-2.03531 3.39961,-2.42954 1.35697,-0.42265 3.56479,-2.67997 5.10658,-5.01726 3.13863,-4.75804 9.77265,-9.36671 13.43322,-9.46776 1.71928,-0.0639 3.10115,-1.06906 4.64293,-3.40634 2.75319,-4.17372 9.00352,-7.83752 11.72625,-6.88006 1.86134,0.62884 2.3036,0.3216 3.34454,-2.34607 0.87575,-2.41724 2.44946,-3.89488 6.76377,-6.43983 6.30539,-3.74727 9.24662,-3.48426 12.15387,1.18884 2.31943,3.56656 32.76445,24.60795 37.06792,25.52997 2.58244,0.62533 3.0247,0.31808 4.12071,-2.43306 0.60218,-1.63932 3.04813,-6.25531 5.27557,-10.17685 3.90602,-6.64778 4.26481,-7.01009 6.76201,-6.80038 2.49721,0.20971 16.29187,7.99157 39.63103,22.18923 5.6745,3.38379 11.68114,6.62728 13.29205,7.09093 3.94468,1.28433 7.0139,-0.64437 11.419,-7.32232 2.03736,-3.08856 4.1333,-5.53948 4.63239,-5.56965 1.52568,0.048 6.84021,-7.82697 7.13164,-10.62966 0.13151,-1.47062 0.3998,-3.33019 0.50641,-4.21824 0.10661,-0.88806 -0.56646,-2.41022 -1.59656,-3.20952 -0.97504,-0.88278 -2.00866,-2.40318 -2.2626,-3.28948 -0.39423,-1.21843 -0.95014,-1.46534 -1.86309,-0.98939 -1.05148,0.50436 -15.24038,-8.49593 -67.16147,-42.7456 -59.60075,-39.31554 -65.88974,-43.58386 -65.89853,-45.38661 -0.15084,-2.49545 -2.26611,-4.01058 -4.03518,-2.7816 z m 56.88243,90.47275 c 1.41526,5.84526 -3.12486,13.27273 -8.74987,14.35409 -3.24144,0.73692 -3.79735,0.49001 -15.31682,-7.10879 -13.6898,-9.03046 -16.03412,-12.01445 -13.8137,-17.37819 1.34291,-3.30705 5.34821,-6.65482 6.10475,-5.07759 0.25219,0.52574 -0.0764,1.38714 -0.85085,1.83468 -0.9396,0.69796 -0.65901,1.36224 1.01048,2.46352 1.41907,0.93608 2.09038,2.09769 1.68004,3.26458 -0.73897,2.02828 3.08094,11.8557 5.00085,13.12217 0.75127,0.49557 2.16682,0.71056 3.10818,0.37314 1.44044,-0.36758 1.51865,-1.39417 0.3377,-4.68891 -1.57518,-4.51319 -0.49323,-10.14873 2.489,-12.8536 1.87744,-1.75648 3.73877,-1.12764 12.69719,4.54217 4.78469,2.91663 5.45425,3.71769 6.30305,7.15273 z"
     id="path62"
     style="fill:#000000;stroke:none;stroke-width:0.1"
     inkscape:export-xdpi="50.799999"
     inkscape:export-ydpi="50.799999" />
</svg>
